<svg width="42" height="42" viewBox="0 0 42 42" fill="none" xmlns="http://www.w3.org/2000/svg">
<circle cx="21" cy="21" r="21" fill="white" fill-opacity="0.1"/>
<path d="M14.6508 16.7171C15.7786 16.7171 16.6929 15.8028 16.6929 14.6749C16.6929 13.5471 15.7786 12.6328 14.6508 12.6328C13.523 12.6328 12.6087 13.5471 12.6087 14.6749C12.6087 15.8028 13.523 16.7171 14.6508 16.7171Z" fill="white"/>
<path d="M18.6212 18.2646V29.5944H22.139V23.9916C22.139 22.5132 22.4171 21.0814 24.2502 21.0814C26.058 21.0814 26.0804 22.7717 26.0804 24.0849V29.5953H29.6V23.3821C29.6 20.3301 28.943 17.9846 25.3758 17.9846C23.6631 17.9846 22.5151 18.9245 22.0456 19.814H21.998V18.2646H18.6212ZM12.8887 18.2646H16.412V29.5944H12.8887V18.2646Z" fill="white"/>
</svg>
