<svg width="42" height="42" viewBox="0 0 42 42" fill="none" xmlns="http://www.w3.org/2000/svg">
<circle cx="21" cy="21" r="21" fill="white" fill-opacity="0.1"/>
<path d="M29.2827 16.5147C28.4682 15.1032 27.2961 13.9314 25.8844 13.1174C24.4536 12.2839 22.8921 11.8667 21.2 11.8667C19.5079 11.8667 17.9464 12.2839 16.5147 13.1174C15.0839 13.9508 13.9508 15.0839 13.1173 16.5147C12.2839 17.9455 11.8667 19.5079 11.8667 21.2C11.8667 22.8922 12.2829 24.4546 13.1173 25.8854C13.9315 27.297 15.1037 28.4689 16.5156 29.2827C17.9464 30.1162 19.5079 30.5334 21.2 30.5334C22.8921 30.5334 24.4536 30.1162 25.8853 29.2827C27.297 28.4686 28.4692 27.2968 29.2836 25.8854C30.1171 24.4546 30.5333 22.8922 30.5333 21.2C30.5333 19.5079 30.1171 17.9455 29.2827 16.5147ZM21.2 13.416C23.0667 13.416 24.7205 14.0134 26.1653 15.2071C25.3067 16.3028 24.0317 17.2044 22.3387 17.9138C21.4035 16.2216 20.3899 14.8086 19.2951 13.6764C19.9156 13.5049 20.5562 13.4173 21.2 13.416ZM15.1427 16.3467C15.8252 15.48 16.6887 14.7729 17.6729 14.2747C18.8041 15.3956 19.8429 16.7947 20.7903 18.4747C18.9236 19.0347 16.9505 19.3147 14.872 19.3147C14.3372 19.3147 13.9331 19.3026 13.6587 19.2774C13.9447 18.2081 14.4501 17.2101 15.1427 16.3467ZM13.416 21.2C13.416 21.1496 13.4188 21.088 13.4253 21.0134C13.4319 20.9387 13.4347 20.8771 13.4347 20.8267C13.6717 20.8398 14.0329 20.8454 14.5183 20.8454C17.0065 20.8454 19.3212 20.5028 21.4613 19.8187C21.6359 20.1668 21.8169 20.5588 22.0027 20.9947C20.7707 21.2682 19.5069 21.9336 18.2124 22.992C16.9179 24.0504 15.9733 25.1639 15.376 26.3334C14.0693 24.8522 13.416 23.1414 13.416 21.2ZM21.2 28.984C19.4323 28.984 17.8456 28.4362 16.4391 27.3423C17 26.2344 17.8615 25.1751 19.0253 24.168C20.1883 23.16 21.3428 22.5319 22.488 22.2827C23.2104 24.2791 23.699 26.3525 23.944 28.4614C23.0693 28.8031 22.1391 28.9803 21.2 28.984ZM27.808 25.288C27.1971 26.2723 26.3745 27.108 25.4 27.7343C25.176 25.793 24.7467 23.9011 24.1129 22.0587C24.9828 21.9971 25.7603 21.9654 26.4463 21.9654C27.192 21.9654 28.0199 21.9971 28.928 22.0587C28.8062 23.2065 28.423 24.3112 27.808 25.288ZM26.6507 20.6214C25.568 20.6214 24.5665 20.6652 23.6453 20.752C23.4502 20.2413 23.2385 19.737 23.0107 19.24C24.9389 18.3944 26.3072 17.3678 27.1164 16.16C28.2364 17.4798 28.8468 18.9852 28.9457 20.6774C28.1879 20.64 27.4225 20.6214 26.6507 20.6214Z" fill="white"/>
</svg>
