<svg width="42" height="42" viewBox="0 0 42 42" fill="none" xmlns="http://www.w3.org/2000/svg">
<circle cx="21" cy="21" r="21" fill="white" fill-opacity="0.1"/>
<path d="M21.1991 16.8853C20.0545 16.8853 18.9567 17.3399 18.1474 18.1493C17.338 18.9587 16.8833 20.0564 16.8833 21.201C16.8833 22.3456 17.338 23.4433 18.1474 24.2527C18.9567 25.062 20.0545 25.5167 21.1991 25.5167C22.3437 25.5167 23.4414 25.062 24.2507 24.2527C25.0601 23.4433 25.5148 22.3456 25.5148 21.201C25.5148 20.0564 25.0601 18.9587 24.2507 18.1493C23.4414 17.3399 22.3437 16.8853 21.1991 16.8853ZM21.1991 24.0038C20.4555 24.0038 19.7423 23.7084 19.2165 23.1826C18.6907 22.6568 18.3953 21.9437 18.3953 21.2001C18.3953 20.4565 18.6907 19.7433 19.2165 19.2175C19.7423 18.6917 20.4555 18.3963 21.1991 18.3963C21.9427 18.3963 22.6558 18.6917 23.1816 19.2175C23.7074 19.7433 24.0028 20.4565 24.0028 21.2001C24.0028 21.9437 23.7074 22.6568 23.1816 23.1826C22.6558 23.7084 21.9427 24.0038 21.1991 24.0038Z" fill="white"/>
<path d="M25.6856 17.7327C26.2413 17.7327 26.6917 17.2823 26.6917 16.7266C26.6917 16.1709 26.2413 15.7205 25.6856 15.7205C25.1299 15.7205 24.6795 16.1709 24.6795 16.7266C24.6795 17.2823 25.1299 17.7327 25.6856 17.7327Z" fill="white"/>
<path d="M29.1641 15.7036C28.948 15.1457 28.6178 14.639 28.1947 14.2159C27.7715 13.7929 27.2647 13.4629 26.7066 13.2471C26.0536 13.002 25.3637 12.8694 24.6664 12.8551C23.7676 12.8159 23.4829 12.8047 21.2037 12.8047C18.9245 12.8047 18.6324 12.8047 17.741 12.8551C17.0442 12.8687 16.3548 13.0012 15.7026 13.2471C15.1444 13.4627 14.6375 13.7926 14.2143 14.2156C13.7911 14.6387 13.461 15.1455 13.2452 15.7036C13 16.3566 12.8677 17.0465 12.8541 17.7439C12.814 18.6418 12.8018 18.9264 12.8018 21.2066C12.8018 23.4858 12.8018 23.776 12.8541 24.6692C12.8681 25.3674 12.9997 26.0562 13.2452 26.7104C13.4616 27.2683 13.792 27.775 14.2153 28.1979C14.6386 28.6209 15.1455 28.951 15.7036 29.167C16.3545 29.4219 17.0442 29.564 17.7429 29.587C18.6417 29.6262 18.9264 29.6383 21.2056 29.6383C23.4848 29.6383 23.7769 29.6383 24.6682 29.587C25.3655 29.5728 26.0554 29.4405 26.7085 29.1959C27.2664 28.9795 27.7731 28.6493 28.1962 28.2261C28.6193 27.803 28.9496 27.2963 29.166 26.7384C29.4114 26.0851 29.543 25.3963 29.557 24.6982C29.5972 23.8003 29.6093 23.5156 29.6093 21.2355C29.6093 18.9554 29.6093 18.666 29.557 17.7728C29.5462 17.0656 29.4132 16.3656 29.1641 15.7036ZM28.0273 24.6002C28.0213 25.138 27.9231 25.6709 27.737 26.1756C27.5969 26.5386 27.3823 26.8682 27.1071 27.1432C26.8319 27.4182 26.5022 27.6326 26.1392 27.7726C25.64 27.9578 25.1128 28.056 24.5805 28.0628C23.6938 28.1039 23.4437 28.1142 21.1701 28.1142C18.8946 28.1142 18.6622 28.1142 17.7588 28.0628C17.2267 28.0563 16.6997 27.9581 16.201 27.7726C15.8367 27.6335 15.5057 27.4195 15.2293 27.1444C14.9529 26.8693 14.7374 26.5393 14.5966 26.1756C14.4132 25.6763 14.315 25.1497 14.3064 24.6179C14.2662 23.7312 14.2569 23.4811 14.2569 21.2075C14.2569 18.933 14.2569 18.7006 14.3064 17.7962C14.3124 17.2586 14.4106 16.726 14.5966 16.2216C14.8813 15.4852 15.4646 14.9056 16.201 14.6238C16.7 14.4391 17.2268 14.3409 17.7588 14.3335C18.6464 14.2934 18.8956 14.2822 21.1701 14.2822C23.4446 14.2822 23.678 14.2822 24.5805 14.3335C25.1129 14.3399 25.6402 14.4381 26.1392 14.6238C26.5022 14.764 26.8318 14.9786 27.107 15.2538C27.3822 15.529 27.5968 15.8586 27.737 16.2216C27.9205 16.7209 28.0186 17.2475 28.0273 17.7794C28.0674 18.667 28.0777 18.9162 28.0777 21.1907C28.0777 23.4643 28.0777 23.7088 28.0376 24.6011H28.0273V24.6002Z" fill="white"/>
</svg>
